<svg width="27" height="98" viewBox="0 0 27 98" fill="none" xmlns="http://www.w3.org/2000/svg">
<g filter="url(#filter0_f_312_8183)">
<path d="M12.4286 95.0607C13.0144 95.6465 13.9641 95.6465 14.5499 95.0607L24.0959 85.5147C24.6816 84.9289 24.6816 83.9792 24.0959 83.3934C23.5101 82.8076 22.5603 82.8076 21.9745 83.3934L13.4893 91.8787L5.00398 83.3934C4.41819 82.8076 3.46845 82.8076 2.88266 83.3934C2.29687 83.9792 2.29687 84.9289 2.88266 85.5147L12.4286 95.0607ZM11.9893 2L11.9893 3.91667L14.9893 3.91667L14.9893 2L11.9893 2ZM11.9893 7.75L11.9893 11.5833L14.9893 11.5833L14.9893 7.75L11.9893 7.75ZM11.9893 15.4167L11.9893 19.25L14.9893 19.25L14.9893 15.4167L11.9893 15.4167ZM11.9893 23.0833L11.9893 26.9167L14.9893 26.9167L14.9893 23.0833L11.9893 23.0833ZM11.9893 30.75L11.9893 34.5833L14.9893 34.5833L14.9893 30.75L11.9893 30.75ZM11.9893 38.4167L11.9893 42.25L14.9893 42.25L14.9893 38.4167L11.9893 38.4167ZM11.9893 46.0833L11.9893 49.9167L14.9893 49.9167L14.9893 46.0833L11.9893 46.0833ZM11.9893 53.75L11.9893 57.5833L14.9893 57.5833L14.9893 53.75L11.9893 53.75ZM11.9893 61.4167L11.9893 65.25L14.9893 65.25L14.9893 61.4167L11.9893 61.4167ZM11.9893 69.0833L11.9893 72.9167L14.9893 72.9167L14.9893 69.0833L11.9893 69.0833ZM11.9893 76.75L11.9893 80.5833L14.9893 80.5833L14.9893 76.75L11.9893 76.75ZM11.9893 84.4167L11.9893 88.25L14.9893 88.25L14.9893 84.4167L11.9893 84.4167ZM11.9893 92.0833L11.9893 94L14.9893 94L14.9893 92.0833L11.9893 92.0833ZM12.4286 95.0607C13.0144 95.6465 13.9641 95.6465 14.5499 95.0607L24.0959 85.5147C24.6816 84.9289 24.6816 83.9792 24.0959 83.3934C23.5101 82.8076 22.5603 82.8076 21.9745 83.3934L13.4893 91.8787L5.00398 83.3934C4.41819 82.8076 3.46845 82.8076 2.88266 83.3934C2.29687 83.9792 2.29687 84.9289 2.88266 85.5147L12.4286 95.0607ZM11.9893 2L11.9893 3.91667L14.9893 3.91667L14.9893 2L11.9893 2ZM11.9893 7.75L11.9893 11.5833L14.9893 11.5833L14.9893 7.75L11.9893 7.75ZM11.9893 15.4167L11.9893 19.25L14.9893 19.25L14.9893 15.4167L11.9893 15.4167ZM11.9893 23.0833L11.9893 26.9167L14.9893 26.9167L14.9893 23.0833L11.9893 23.0833ZM11.9893 30.75L11.9893 34.5833L14.9893 34.5833L14.9893 30.75L11.9893 30.75ZM11.9893 38.4167L11.9893 42.25L14.9893 42.25L14.9893 38.4167L11.9893 38.4167ZM11.9893 46.0833L11.9893 49.9167L14.9893 49.9167L14.9893 46.0833L11.9893 46.0833ZM11.9893 53.75L11.9893 57.5833L14.9893 57.5833L14.9893 53.75L11.9893 53.75ZM11.9893 61.4167L11.9893 65.25L14.9893 65.25L14.9893 61.4167L11.9893 61.4167ZM11.9893 69.0833L11.9893 72.9167L14.9893 72.9167L14.9893 69.0833L11.9893 69.0833ZM11.9893 76.75L11.9893 80.5833L14.9893 80.5833L14.9893 76.75L11.9893 76.75ZM11.9893 84.4167L11.9893 88.25L14.9893 88.25L14.9893 84.4167L11.9893 84.4167ZM11.9893 92.0833L11.9893 94L14.9893 94L14.9893 92.0833L11.9893 92.0833Z" fill="white"/>
</g>
<defs>
<filter id="filter0_f_312_8183" x="0.443359" y="0" width="26.0918" height="97.5" filterUnits="userSpaceOnUse" color-interpolation-filters="sRGB">
<feFlood flood-opacity="0" result="BackgroundImageFix"/>
<feBlend mode="normal" in="SourceGraphic" in2="BackgroundImageFix" result="shape"/>
<feGaussianBlur stdDeviation="1" result="effect1_foregroundBlur_312_8183"/>
</filter>
</defs>
</svg>
