<svg width="18" height="15" viewBox="0 0 18 15" fill="none" xmlns="http://www.w3.org/2000/svg">
<path d="M1.99177 -6.64312e-07C1.7239 0.00461567 1.46242 0.082562 1.23575 0.225368C1.00907 0.368173 0.825874 0.570375 0.70606 0.809999C0.570858 1.04928 0.499809 1.31945 0.499809 1.59428C0.499809 1.86912 0.570858 2.13929 0.70606 2.37857L7.58463 13.5C7.70121 13.742 7.88371 13.9462 8.11115 14.089C8.3386 14.2319 8.60174 14.3077 8.87035 14.3077C9.13895 14.3077 9.4021 14.2319 9.62954 14.089C9.85698 13.9462 10.0395 13.742 10.1561 13.5L16.9832 2.37857C17.1184 2.13929 17.1895 1.86912 17.1895 1.59429C17.1895 1.31945 17.1184 1.04928 16.9832 0.81C16.8634 0.570376 16.6802 0.368174 16.4535 0.225368C16.2268 0.0825626 15.9654 0.00461629 15.6975 -6.52158e-08L1.99177 -6.64312e-07Z" fill="#AAAAAA"/>
</svg>
