<svg width="25" height="25" viewBox="0 0 25 25" fill="none" xmlns="http://www.w3.org/2000/svg">
<path d="M18.4286 2H6.92857C4.2066 2 2 4.2066 2 6.92857V18.4286C2 21.1505 4.2066 23.3571 6.92857 23.3571H18.4286C21.1505 23.3571 23.3571 21.1505 23.3571 18.4286V6.92857C23.3571 4.2066 21.1505 2 18.4286 2Z" stroke="white" stroke-width="2.09367" stroke-linecap="round" stroke-linejoin="round"/>
<path d="M7.75 14.3217L11.1179 17.016C11.2083 17.0904 11.3142 17.1438 11.4279 17.1723C11.5416 17.2007 11.6601 17.2034 11.775 17.1802C11.891 17.1585 12.0009 17.112 12.0973 17.044C12.1936 16.9759 12.2742 16.8879 12.3336 16.786L17.6071 7.75024" stroke="white" stroke-width="2.09367" stroke-linecap="round" stroke-linejoin="round"/>
</svg>
