<svg width="26" height="24" viewBox="0 0 26 24" fill="none" xmlns="http://www.w3.org/2000/svg">
<path d="M12.99 15.3901L8.82808 19.2701C8.32418 19.7235 7.65121 19.9768 6.9509 19.9768C6.2506 19.9768 5.57763 19.7235 5.07373 19.2701C4.82659 19.0406 4.63049 18.7679 4.49669 18.4676C4.36288 18.1673 4.294 17.8453 4.294 17.5201C4.294 17.1949 4.36288 16.8729 4.49669 16.5726C4.63049 16.2723 4.82659 15.9996 5.07373 15.7701L9.23569 11.8901C9.43768 11.7018 9.55116 11.4464 9.55116 11.1801C9.55116 10.9138 9.43768 10.6584 9.23569 10.4701C9.03371 10.2818 8.75975 10.176 8.4741 10.176C8.18844 10.176 7.91449 10.2818 7.7125 10.4701L3.55053 14.3601C2.71209 15.2109 2.25863 16.3308 2.28486 17.4858C2.31109 18.6409 2.81498 19.7419 3.6913 20.5589C4.56762 21.3758 5.74861 21.8456 6.98764 21.87C8.22667 21.8945 9.42792 21.4717 10.3405 20.6901L14.5132 16.8101C14.7152 16.6218 14.8287 16.3664 14.8287 16.1001C14.8287 15.8338 14.7152 15.5784 14.5132 15.3901C14.3113 15.2018 14.0373 15.096 13.7516 15.096C13.466 15.096 13.192 15.2018 12.99 15.3901ZM22.1936 3.31009C21.2912 2.4741 20.0707 2.00488 18.7986 2.00488C17.5264 2.00488 16.3059 2.4741 15.4036 3.31009L11.2309 7.19009C11.1309 7.28333 11.0515 7.39402 10.9974 7.51585C10.9433 7.63767 10.9154 7.76824 10.9154 7.90009C10.9154 8.03195 10.9433 8.16252 10.9974 8.28434C11.0515 8.40617 11.1309 8.51686 11.2309 8.61009C11.3309 8.70333 11.4496 8.77729 11.5803 8.82775C11.711 8.87821 11.851 8.90419 11.9925 8.90419C12.1339 8.90419 12.274 8.87821 12.4046 8.82775C12.5353 8.77729 12.654 8.70333 12.7541 8.61009L16.916 4.73009C17.4199 4.27672 18.0929 4.02335 18.7932 4.02335C19.4935 4.02335 20.1665 4.27672 20.6704 4.73009C20.9175 4.95958 21.1136 5.2323 21.2474 5.53261C21.3812 5.83292 21.4501 6.15491 21.4501 6.48009C21.4501 6.80528 21.3812 7.12727 21.2474 7.42758C21.1136 7.72789 20.9175 8.00061 20.6704 8.23009L16.5084 12.1101C16.4079 12.2031 16.3281 12.3137 16.2736 12.4355C16.2192 12.5574 16.1911 12.6881 16.1911 12.8201C16.1911 12.9521 16.2192 13.0828 16.2736 13.2047C16.3281 13.3265 16.4079 13.4371 16.5084 13.5301C16.6081 13.6238 16.7268 13.6982 16.8575 13.749C16.9882 13.7998 17.1284 13.8259 17.27 13.8259C17.4116 13.8259 17.5518 13.7998 17.6825 13.749C17.8132 13.6982 17.9319 13.6238 18.0316 13.5301L22.1936 9.64009C23.0903 8.79887 23.5936 7.66107 23.5936 6.47509C23.5936 5.28912 23.0903 4.15131 22.1936 3.31009ZM9.47168 15.1701C9.57191 15.2628 9.69078 15.3361 9.82147 15.3859C9.95217 15.4356 10.0921 15.4609 10.2333 15.4601C10.3744 15.4609 10.5144 15.4356 10.6451 15.3859C10.7758 15.3361 10.8946 15.2628 10.9949 15.1701L16.2724 10.2501C16.4744 10.0618 16.5879 9.8064 16.5879 9.54009C16.5879 9.27379 16.4744 9.0184 16.2724 8.83009C16.0704 8.64179 15.7965 8.536 15.5108 8.536C15.2252 8.536 14.9512 8.64179 14.7492 8.83009L9.47168 13.7501C9.37114 13.8431 9.29134 13.9537 9.23688 14.0755C9.18243 14.1974 9.15439 14.3281 9.15439 14.4601C9.15439 14.5921 9.18243 14.7228 9.23688 14.8447C9.29134 14.9665 9.37114 15.0771 9.47168 15.1701Z" fill="white"/>
</svg>
