<svg width="35" height="30" viewBox="0 0 35 30" fill="none" xmlns="http://www.w3.org/2000/svg">
<path fill-rule="evenodd" clip-rule="evenodd" d="M30.3257 0.0863546V4.58818C30.3257 4.63566 30.3646 4.67453 30.4121 4.67453H34.9139C34.9614 4.67453 35.0003 4.71341 35.0003 4.76089V7.4662C35.0003 7.51369 34.9614 7.55256 34.9139 7.55256H30.4121C30.3646 7.55256 30.3257 7.59143 30.3257 7.63891V12.1407C30.3257 12.1882 30.2869 12.2271 30.2394 12.2271H27.5341C27.4866 12.2271 27.4477 12.1882 27.4477 12.1407V7.63891C27.4477 7.59143 27.4088 7.55256 27.3614 7.55256H22.8595C22.8121 7.55256 22.7735 7.51396 22.7732 7.46648V4.76089C22.7732 4.71341 22.8121 4.67453 22.8595 4.67453H27.3614C27.4088 4.67453 27.4477 4.63566 27.4477 4.58818V0.0863546C27.4477 0.0388735 27.4866 0 27.5341 0H30.2394C30.2869 0 30.3257 0.0388735 30.3257 0.0863546ZM10.8729 15.2606L13.4913 19.7958C13.5071 19.8232 13.5344 19.8388 13.566 19.8388C13.5977 19.8388 13.6249 19.823 13.6407 19.7958L19.2954 10.0013C19.3112 9.97382 19.3384 9.95799 19.3701 9.95799C19.4017 9.95799 19.429 9.97382 19.4448 10.001L27.6182 24.1576C27.634 24.1851 27.634 24.2165 27.6182 24.244C27.6024 24.2715 27.5752 24.287 27.5435 24.287H5.66109C5.62943 24.287 5.60222 24.2712 5.58639 24.244C5.57057 24.2165 5.57057 24.1851 5.58639 24.1576L10.7232 15.2601C10.7391 15.2326 10.7663 15.2167 10.7979 15.2167C10.8296 15.2167 10.8568 15.2326 10.8726 15.2601L10.8729 15.2606ZM10.7982 9.87192C11.7837 9.87192 12.5825 10.671 12.5825 11.6562C12.5825 12.6414 11.7834 13.4405 10.7982 13.4405C9.81305 13.4405 9.01392 12.6414 9.01392 11.6562C9.01392 10.671 9.81305 9.87192 10.7982 9.87192ZM18.3291 4.67426V7.49008C18.3291 7.53756 18.2902 7.57644 18.2428 7.57644L3.31035 7.55311C3.19123 7.55311 3.08877 7.59532 3.00464 7.67918C2.92051 7.76331 2.87802 7.86577 2.87802 7.98461V26.1732C2.87802 26.4109 3.07184 26.6047 3.30952 26.6047H29.8951C30.1328 26.6047 30.3266 26.4109 30.3266 26.1732V16.7536C30.3266 16.7061 30.3655 16.6673 30.4129 16.6673H33.1182C33.1657 16.6673 33.2046 16.7061 33.2046 16.7536C33.2046 20.2781 33.2024 23.8025 33.2018 27.325C33.2018 28.5137 32.2322 29.483 31.0435 29.483H2.15831C0.969615 29.483 0 28.5134 0 27.3247V6.83257C0 5.64387 0.969615 4.67426 2.15831 4.67426H18.3291Z" fill="#474747"/>
</svg>
