<svg width="29" height="29" viewBox="0 0 29 29" fill="none" xmlns="http://www.w3.org/2000/svg">
<path d="M19.6923 21.7692V25.9231C19.6923 26.4739 19.4735 27.0022 19.084 27.3917C18.6945 27.7812 18.1662 28 17.6154 28H3.07692C2.52609 28 1.99782 27.7812 1.60832 27.3917C1.21882 27.0022 1 26.4739 1 25.9231V3.07692C1 2.52609 1.21882 1.99782 1.60832 1.60832C1.99782 1.21882 2.52609 1 3.07692 1H17.6154C18.1662 1 18.6945 1.21882 19.084 1.60832C19.4735 1.99782 19.6923 2.52609 19.6923 3.07692V7.23077" stroke="#4C35B9" stroke-width="2.01843" stroke-linecap="round" stroke-linejoin="round"/>
<path d="M13.4615 14.5H28" stroke="#4C35B9" stroke-width="2.01843" stroke-linecap="round" stroke-linejoin="round"/>
<path d="M23.8462 10.3467L28 14.5005L23.8462 18.6544" stroke="#4C35B9" stroke-width="2.01843" stroke-linecap="round" stroke-linejoin="round"/>
</svg>
